HIERARCHY
ROOT Hips
{
  OFFSET -307.894 89.2041 297.617
  CHANNELS 6 Xposition Yposition Zposition Zrotation Xrotation Yrotation
  JOINT ToSpine
  {
    OFFSET -0.0105055 1.38907 -7.13956
    CHANNELS 3 Zrotation Xrotation Yrotation
    JOINT Spine
    {
      OFFSET 0.0105055 10 1
      CHANNELS 3 Zrotation Xrotation Yrotation
      JOINT Spine1
      {
        OFFSET 0 12 1.60637
        CHANNELS 3 Zrotation Xrotation Yrotation
        JOINT Neck
        {
          OFFSET 0 27 2.26658
          CHANNELS 3 Zrotation Xrotation Yrotation
          JOINT Head
          {
            OFFSET 0 9 2.12705
            CHANNELS 3 Zrotation Xrotation Yrotation
            End Site
            {
              OFFSET 0 11 2
            }
          }
        }
        JOINT LeftShoulder
        {
          OFFSET 8 19.6109 2.86452
          CHANNELS 3 Zrotation Xrotation Yrotation
          JOINT LeftArm
          {
            OFFSET 12 1 0.681055
            CHANNELS 3 Zrotation Xrotation Yrotation
            JOINT LeftForeArm
            {
              OFFSET 19 0 -1.52608
              CHANNELS 3 Zrotation Xrotation Yrotation
              JOINT LeftHand
              {
                OFFSET 23 0 0
                CHANNELS 3 Zrotation Xrotation Yrotation
                End Site
                {
                  OFFSET 10 0 0
                }
              }
            }
          }
        }
        JOINT RightShoulder
        {
          OFFSET -8 19.6109 2.86452
          CHANNELS 3 Zrotation Xrotation Yrotation
          JOINT RightArm
          {
            OFFSET -12 1 0.681055
            CHANNELS 3 Zrotation Xrotation Yrotation
            JOINT RightForeArm
            {
              OFFSET -19 0 -1.52608
              CHANNELS 3 Zrotation Xrotation Yrotation
              JOINT RightHand
              {
                OFFSET -23 0 0
                CHANNELS 3 Zrotation Xrotation Yrotation
                End Site
                {
                  OFFSET -10 0 0
                }
              }
            }
          }
        }
      }
    }
  }
  JOINT LeftUpLeg
  {
    OFFSET 9 -7.17245 0
    CHANNELS 3 Zrotation Xrotation Yrotation
    JOINT LeftLeg
    {
      OFFSET 0 -44.1113 0
      CHANNELS 3 Zrotation Xrotation Yrotation
      JOINT LeftFoot
      {
        OFFSET 0 -36.1829 0
        CHANNELS 3 Zrotation Xrotation Yrotation
        JOINT LeftToeBase
        {
          OFFSET 0 -4.84184 13
          CHANNELS 3 Zrotation Xrotation Yrotation
          End Site
          {
            OFFSET 0 1 6
          }
        }
      }
    }
  }
  JOINT RightUpLeg
  {
    OFFSET -9 -7.17245 0
    CHANNELS 3 Zrotation Xrotation Yrotation
    JOINT RightLeg
    {
      OFFSET 0 -44.0551 0
      CHANNELS 3 Zrotation Xrotation Yrotation
      JOINT RightFoot
      {
        OFFSET 0 -36.1469 0
        CHANNELS 3 Zrotation Xrotation Yrotation
        JOINT RightToeBase
        {
          OFFSET 0 -4.92256 13
          CHANNELS 3 Zrotation Xrotation Yrotation
          End Site
          {
            OFFSET 0 1 6
          }
        }
      }
    }
  }
}
MOTION
Frames:	8
Frame Time:	0.0333333
-58.1397 95.3899 72.4839 -1.23467 -2.89107 -43.7356 0 0 0 10.1016 4.62916 7.46754 -13.6081 4.70828 10.406 7.71069 4.69542 -6.61724 3.29371 -3.90985 -4.63593 -30.1003 2.32814 -2.92929 -58.1713 13.2856 22.5396 -3.99798 -15.0336 -13.698 -10.1117 0.0462448 -0.522709 21.986 5.44753 15.5561 40.4297 13.2905 17.4703 3.06733 -5.59652 13.843 3.65585 0.111644 3.49718 1.01972 -21.5121 -0.492918 0.515216 28.2461 -11.9166 -1.54926 -6.19029 -0.0837783 0.459656 3.91177 -2.62291 -6.42108 5.75301 13.5323 -3.9375e-007 34.7804 25.5123 -14.1303 -13.3557 -1.66271 5.33439 -19.4212 0.985229 
-56.1565 94.815 68.9924 -0.534008 -2.92983 -42.6335 0 0 0 10.1124 7.14081 7.10852 -14.2631 3.30617 10.2902 5.12656 3.05966 -5.57491 4.09955 -3.63246 -4.67718 -30.127 2.21234 -2.60543 -58.1449 12.8412 20.9088 -3.63034 -14.0373 -13.6636 -10.2026 0.0318028 -0.35625 21.5068 5.44899 15.8638 40.5336 13.538 20.4736 4.13776 -9.09811 13.5924 2.40554 0.0684742 3.26051 1.06864 -23.9622 0.681912 0.844934 25.9016 -15.0173 -4.17081 -3.77476 -0.137501 0.00955051 5.8328 -1.33481 -5.46494 4.56551 14.4386 -5.48972e-007 34.4186 20.2832 -18.0843 -18.1027 -2.90443 6.09953 -22.5489 -0.87917 
-54.053 94.5041 65.7605 -0.381888 -2.22586 -40.9915 0 0 0 12.2607 9.03937 6.31326 -15.6599 2.60261 10.0883 2.96628 1.19569 -4.53534 3.84152 -4.19337 -4.30385 -30.0172 2.20379 -2.6001 -57.7605 11.346 19.5922 -3.0278 -12.3149 -14.9907 -9.7569 0.0256423 -0.300432 21.4178 5.54639 16.262 39.6771 13.8671 23.8455 4.22538 -8.94525 13.1147 2.88979 0.0718841 2.84929 1.94366 -25.595 2.36805 0.360484 21.8002 -17.9234 -3.42202 -1.04048 -0.0310816 0.887928 -0.0980179 -3.70338 -4.58795 2.03817 11.1657 2.40087e-007 35.0449 19.563 -23.7134 -19.9252 -4.22394 5.60124 -21.7293 -4.435 
-52.2746 94.2631 62.5645 -0.272714 -1.10198 -37.4062 0 0 0 13.2465 10.5758 5.26583 -14.8038 1.37009 9.00968 0.828768 -0.794749 -3.45517 3.80142 -4.24259 -3.87999 -30.0724 2.16174 -2.47481 -57.0211 11.3947 18.0874 -3.40327 -13.6084 -15.7168 -9.40139 0.192581 -2.34174 21.9341 5.93568 17.2665 37.676 15.1732 25.3246 4.65975 -9.99572 13.8123 2.39341 0.0631622 3.02293 2.76208 -26.3016 3.35257 -1.0724 17.0396 -20.5675 -1.52183 -1.14578 -0.0152179 0.421522 -3.65624 -0.876988 -3.97647 -0.819721 4.91268 3.09384e-007 35.5561 21.0018 -27.0609 -20.0348 -4.86798 5.56596 -21.8726 -5.34923 
-50.9536 94.3269 59.7741 -0.316979 0.163071 -33.2741 0 0 0 14.2793 10.9873 4.79256 -13.8768 0.673013 8.34989 0.44647 -2.78642 -3.04969 2.04843 -3.61359 -3.2629 -29.1496 2.20596 -2.75382 -56.5563 11.2759 16.6304 -3.44087 -13.6624 -16.3995 -9.07705 0.223602 -2.81636 22.5444 5.99914 17.0742 36.7642 16.6244 26.6055 5.22363 -10.8248 13.4227 1.56911 0.0453048 3.30747 3.45091 -25.9357 4.49177 -2.71216 11.8791 -19.2361 1.73834 -2.08831 0.0316852 -0.0453741 -6.81322 2.70338 -3.33228 -2.8993 -0.617069 1.11269e-007 34.8345 22.1214 -28.9136 -19.7279 -5.13354 5.30594 -20.951 -6.01633 
-49.8515 95.1061 56.914 0.602227 0.789567 -28.4876 0 0 0 13.246 11.1708 4.56665 -13.0027 -0.0835276 7.8591 0.102428 -3.48427 -2.29756 1.126 -2.87023 -2.44254 -27.9323 2.22909 -3.03988 -55.9627 10.7575 15.3722 -3.35187 -13.7583 -16.2792 -8.6241 0.218522 -2.89748 22.9803 6.16919 17.3542 37.9326 17.3645 25.5119 5.91389 -12.6821 13.2292 1.58492 0.0592572 4.28211 1.68418 -26.1903 5.19402 -3.3478 10.113 -2.62235 -2.64197 -3.29169 -0.0759261 0.0802971 -1.88596 0.188804 -3.19986 -3.99357 -4.3356 1.65537e-006 31.9387 19.8316 -28.8041 -18.8764 -4.88872 5.03851 -19.8054 -6.17661 
-48.8587 96.1515 54.245 1.93166 1.32847 -23.4251 0 0 0 12.1059 10.7892 4.4646 -12.8809 -0.157603 7.67163 0.0259276 -5.02366 -1.47338 0.555394 -1.23643 -1.54197 -27.101 2.23521 -3.21688 -54.4643 10.8525 13.3891 -3.44545 -14.8386 -15.3595 -8.38206 0.189677 -2.58802 23.1573 6.13434 17.123 40.0344 17.6347 24.6613 5.79788 -12.0167 12.3536 2.71137 0.0796749 3.36572 -0.99612 -26.0661 4.76929 -3.58448 10.7027 12.863 -1.29643 -3.91664 -0.0443299 0.474414 -1.12186 -1.74802 -3.30133 -4.61392 -6.75137 0.0187959 28.0012 16.1424 -29.9315 -15.8914 -4.27338 5.11079 -20.439 -7.2929 
-48.0765 97.3515 51.86 3.16431 1.62628 -17.5858 0 0 0 10.8367 10.4111 4.00798 -13.09 -0.421461 7.16444 0.373113 -4.92569 -0.491363 -0.494139 -0.923213 -0.275594 -25.5497 2.27862 -3.66945 -53.8768 10.002 12.9239 -3.85746 -15.9613 -16.0892 -7.81422 0.205683 -3.01086 23.7385 6.21241 17.0042 41.3865 18.5006 23.7451 5.50378 -9.41243 10.8496 3.41886 0.113338 3.79628 -3.15587 -25.8142 3.79562 -3.7188 14.9946 16.8006 5.4862 -3.25262 0.155884 0.618681 -3.62329 -1.83044 -3.52365 -4.20023 -7.41828 0.378762 23.2195 11.1209 -28.8162 -12.7014 -3.27561 4.97597 -20.0492 -8.18178 
